<svg width="1.429rem" height="0.64rem" viewBox="0 0 20 9" fill="none" xmlns="http://www.w3.org/2000/svg">
<path d="M19.7426 10.8344C19.6764 10.9943 19.5642 11.131 19.4204 11.2271C19.2765 11.3233 19.1073 11.3747 18.9343 11.3747H1.43428C1.26112 11.3748 1.09182 11.3236 0.947798 11.2275C0.803779 11.1313 0.691522 10.9946 0.625238 10.8347C0.558955 10.6747 0.541626 10.4986 0.575445 10.3288C0.609264 10.159 0.69271 10.003 0.81522 9.88065L9.56522 1.13065C9.64648 1.04929 9.74299 0.984756 9.84921 0.940722C9.95543 0.896688 10.0693 0.874023 10.1843 0.874023C10.2993 0.874023 10.4131 0.896688 10.5194 0.940722C10.6256 0.984756 10.7221 1.04929 10.8033 1.13065L19.5533 9.88065C19.6757 10.0031 19.7589 10.1591 19.7926 10.3288C19.8263 10.4986 19.8089 10.6745 19.7426 10.8344Z" fill="white" />
</svg>