<svg width="100%" height="100%" viewBox="0 0 33 29" fill="none" xmlns="http://www.w3.org/2000/svg">
<path d="M15.5003 8.03125C14.221 8.03125 12.9703 8.41063 11.9065 9.12143C10.8427 9.83222 10.0136 10.8425 9.524 12.0245C9.0344 13.2065 8.9063 14.5072 9.1559 15.762C9.40549 17.0168 10.0216 18.1694 10.9263 19.0741C11.8309 19.9788 12.9835 20.5949 14.2384 20.8444C15.4932 21.094 16.7938 20.9659 17.9758 20.4763C19.1578 19.9867 20.1681 19.1576 20.8789 18.0938C21.5897 17.0301 21.9691 15.7794 21.9691 14.5C21.9669 12.7851 21.2846 11.141 20.072 9.92836C18.8593 8.71572 17.2153 8.03348 15.5003 8.03125ZM15.5003 19.2812C14.5547 19.2812 13.6303 19.0008 12.844 18.4755C12.0578 17.9501 11.4449 17.2034 11.0831 16.3297C10.7212 15.456 10.6265 14.4947 10.811 13.5672C10.9955 12.6397 11.4508 11.7878 12.1195 11.1191C12.7882 10.4505 13.6401 9.9951 14.5676 9.81062C15.495 9.62613 16.4564 9.72082 17.3301 10.0827C18.2037 10.4446 18.9504 11.0574 19.4758 11.8437C20.0012 12.6299 20.2816 13.5544 20.2816 14.5C20.2816 15.7681 19.7779 16.9842 18.8812 17.8808C17.9845 18.7775 16.7684 19.2812 15.5003 19.2812ZM30.6878 11.6312C30.6634 11.5137 30.6141 11.4027 30.5433 11.3057C30.4725 11.2086 30.3818 11.1279 30.2772 11.0687L25.9966 8.62468L25.9375 8.52484L25.9207 3.7C25.9207 3.57812 25.8943 3.4577 25.8433 3.347C25.7923 3.2363 25.718 3.13796 25.6253 3.05875C24.1303 1.79463 22.4091 0.825478 20.553 0.202652C20.4414 0.165134 20.3232 0.151383 20.206 0.162281C20.0888 0.17318 19.9751 0.208487 19.8724 0.265934L15.565 2.66781H15.4244L11.1283 0.263121C11.0251 0.205505 10.9109 0.170224 10.7932 0.159565C10.6754 0.148906 10.5568 0.163106 10.4449 0.201246C8.58893 0.825887 6.86858 1.79749 5.37535 3.06437C5.2824 3.14317 5.20762 3.24116 5.15616 3.35162C5.1047 3.46207 5.07777 3.58236 5.07723 3.70421L5.05473 8.53328C5.03504 8.56562 5.01535 8.59937 4.99707 8.63312L0.722069 11.0645C0.617009 11.1246 0.526092 11.2065 0.455484 11.3048C0.384877 11.403 0.336232 11.5153 0.31285 11.6341C-0.0626167 13.5272 -0.0626167 15.4756 0.31285 17.3687C0.337318 17.4863 0.386606 17.5973 0.457419 17.6943C0.528233 17.7913 0.61894 17.8721 0.723475 17.9312L5.00129 20.3683L5.06035 20.4681L5.07723 25.293C5.07654 25.4162 5.10288 25.5382 5.15439 25.6502C5.20589 25.7622 5.28132 25.8615 5.37535 25.9412C6.87038 27.2054 8.59157 28.1745 10.4477 28.7973C10.5593 28.8349 10.6775 28.8486 10.7947 28.8377C10.9119 28.8268 11.0256 28.7915 11.1283 28.7341L15.4328 26.3322H15.5735L19.871 28.7369C19.9967 28.8064 20.1379 28.8431 20.2816 28.8437C20.374 28.8441 20.4657 28.8289 20.553 28.7987C22.4065 28.1733 24.1244 27.2017 25.6155 25.9356C25.7085 25.8568 25.7832 25.7588 25.8347 25.6484C25.8862 25.5379 25.9131 25.4176 25.9136 25.2958L25.9361 20.4667C25.9558 20.4344 25.9755 20.4006 25.9938 20.3669L30.2716 17.9355C30.3769 17.8756 30.4681 17.7937 30.539 17.6954C30.6098 17.5972 30.6587 17.4848 30.6822 17.3659C31.0595 15.4732 31.0615 13.5247 30.6878 11.6312ZM29.1058 16.6642L24.9672 19.0141C24.833 19.0908 24.7222 19.2026 24.6466 19.3375C24.5636 19.4781 24.4764 19.6342 24.385 19.7791C24.3018 19.9124 24.2575 20.0663 24.2571 20.2234L24.2346 24.8936C23.071 25.8258 21.7641 26.5633 20.3646 27.0775L16.2035 24.7487C16.0777 24.678 15.9358 24.6407 15.7914 24.6405H15.7718C15.5974 24.6405 15.4202 24.6405 15.2458 24.6405C15.0949 24.6368 14.9459 24.6737 14.8141 24.7473L10.6418 27.0761C9.2405 26.5645 7.9316 25.8289 6.76613 24.8978L6.74926 20.2333C6.74882 20.0761 6.7045 19.9222 6.62129 19.7889C6.53129 19.6483 6.44269 19.4964 6.35973 19.3473C6.2849 19.2124 6.17449 19.1005 6.04051 19.0239L1.90191 16.6656C1.66134 15.2324 1.66134 13.769 1.90191 12.3358L6.03348 9.98593C6.16974 9.90996 6.28258 9.7981 6.35973 9.6625C6.44269 9.52187 6.52988 9.36578 6.62129 9.22093C6.7045 9.08762 6.74882 8.93371 6.74926 8.77656L6.77176 4.1064C7.93362 3.17472 9.23862 2.43721 10.6361 1.9225L14.7972 4.25125C14.9285 4.32611 15.0779 4.3631 15.2289 4.35812C15.4033 4.35812 15.5805 4.35812 15.7549 4.35812C15.9058 4.36175 16.0548 4.32484 16.1866 4.25125L20.3561 1.9225C21.7574 2.43405 23.0663 3.16972 24.2318 4.10078L24.2486 8.76531C24.2491 8.92246 24.2934 9.07637 24.3766 9.20968C24.4666 9.35031 24.5552 9.50218 24.6382 9.65125C24.713 9.78622 24.8234 9.89809 24.9574 9.97468L29.0988 12.3344C29.3408 13.7674 29.3422 15.2307 29.103 16.6642H29.1058Z" fill="#333333"/>
</svg>
