<svg width="100%" height="100%" viewBox="0 0 33 30" fill="none" xmlns="http://www.w3.org/2000/svg" preserveAspectRatio="none">
<path d="M31.9589 12.0764C31.9275 11.918 31.8625 11.7681 31.7681 11.6371C31.6737 11.5061 31.5522 11.3969 31.4118 11.317L27.217 8.92638L27.2001 4.19857C27.1996 4.03574 27.1638 3.87497 27.0951 3.72735C27.0263 3.57974 26.9264 3.44879 26.8022 3.34357C25.2805 2.05642 23.5282 1.07003 21.6384 0.436848C21.4896 0.386476 21.3319 0.367835 21.1754 0.382125C21.0189 0.396415 20.8672 0.443319 20.73 0.519817L16.4986 2.88513L12.2629 0.515598C12.1256 0.438669 11.9737 0.391411 11.817 0.376877C11.6602 0.362343 11.5022 0.380857 11.3531 0.431223C9.46445 1.06848 7.71405 2.05868 6.19496 3.34919C6.07089 3.45426 5.97106 3.58498 5.90236 3.73234C5.83365 3.8797 5.79771 4.0402 5.797 4.20279L5.7759 8.93482L1.58106 11.3254C1.44072 11.4053 1.31922 11.5145 1.22483 11.6455C1.13044 11.7766 1.06536 11.9264 1.03403 12.0848C0.650116 14.014 0.650116 16 1.03403 17.9292C1.06536 18.0876 1.13044 18.2374 1.22483 18.3685C1.31922 18.4995 1.44072 18.6087 1.58106 18.6886L5.7759 21.0792L5.79278 25.8084C5.79329 25.9712 5.82913 26.132 5.89784 26.2796C5.96655 26.4272 6.06649 26.5582 6.19075 26.6634C7.71241 27.9506 9.46472 28.9369 11.3545 29.5701C11.5033 29.6205 11.661 29.6391 11.8175 29.6249C11.974 29.6106 12.1257 29.5637 12.2629 29.4872L16.4986 27.1148L20.7342 29.4843C20.9018 29.5777 21.0907 29.6262 21.2826 29.625C21.4055 29.6249 21.5275 29.605 21.644 29.5659C23.5322 28.9289 25.2825 27.9398 26.8022 26.6508C26.9262 26.5457 27.0261 26.415 27.0948 26.2676C27.1635 26.1202 27.1994 25.9597 27.2001 25.7972L27.2212 21.0651L31.4161 18.6745C31.5564 18.5946 31.6779 18.4854 31.7723 18.3544C31.8667 18.2234 31.9318 18.0736 31.9631 17.9151C32.3449 15.9875 32.3434 14.0035 31.9589 12.0764ZM16.4986 20.625C15.386 20.625 14.2985 20.2951 13.3735 19.677C12.4484 19.0589 11.7275 18.1804 11.3017 17.1526C10.876 16.1247 10.7646 14.9937 10.9816 13.9026C11.1987 12.8114 11.7344 11.8092 12.5211 11.0225C13.3078 10.2358 14.31 9.7001 15.4012 9.48306C16.4923 9.26601 17.6233 9.37741 18.6512 9.80315C19.679 10.2289 20.5575 10.9499 21.1756 11.8749C21.7937 12.7999 22.1236 13.8875 22.1236 15C22.1236 16.4918 21.5309 17.9226 20.476 18.9774C19.4211 20.0323 17.9904 20.625 16.4986 20.625Z" fill="white"/>
</svg>
