<svg width="100%" height="100%" viewBox="0 0 16 16" fill="none" xmlns="http://www.w3.org/2000/svg">
<path d="M3.69843 3.69867C3.99132 3.40578 4.4662 3.40578 4.75909 3.69867L8 6.93958L11.2409 3.69867C11.5338 3.40578 12.0087 3.40578 12.3016 3.69867C12.5945 3.99157 12.5945 4.46644 12.3016 4.75933L9.06066 8.00024L12.3016 11.2411C12.5945 11.534 12.5945 12.0089 12.3016 12.3018C12.0087 12.5947 11.5338 12.5947 11.2409 12.3018L8 9.0609L4.75909 12.3018C4.4662 12.5947 3.99132 12.5947 3.69843 12.3018C3.40554 12.0089 3.40554 11.534 3.69843 11.2411L6.93934 8.00024L3.69843 4.75933C3.40554 4.46644 3.40554 3.99157 3.69843 3.69867Z" fill="#FFFFFF"/>
</svg>
