<svg width="100%" height="100%" viewBox="0 0 17 18" fill="none" xmlns="http://www.w3.org/2000/svg" preserveAspectRatio="none">
<path d="M15.8885 11.0501C14.5796 11.4171 13.1966 11.4291 11.8815 11.0849C10.5665 10.7407 9.36671 10.0526 8.40549 9.09142C7.44426 8.1302 6.75621 6.93044 6.412 5.61536C6.06778 4.30029 6.07981 2.91729 6.44685 1.6084C5.1564 1.96758 3.98258 2.65858 3.0423 3.61259C2.10202 4.5666 1.4281 5.75032 1.08767 7.04584C0.747239 8.34135 0.752176 9.70346 1.10199 10.9965C1.4518 12.2895 2.13428 13.4683 3.08145 14.4155C4.02862 15.3626 5.20742 16.0451 6.50044 16.3949C7.79345 16.7447 9.15556 16.7497 10.4511 16.4092C11.7466 16.0688 12.9303 15.3949 13.8843 14.4546C14.8383 13.5143 15.5293 12.3405 15.8885 11.0501V11.0501Z" stroke="#49536E" stroke-width="1.33333" stroke-linecap="round" stroke-linejoin="round"/>
</svg>
